name C:/MyDriveSym/Projects/mobilecap/Data\Session20210910_0001\mocap\ForceDataProcessed\DJAsym4_forces.mot
datacolumns 28
datarows 13
range 1.39950000 1.40550000
endheader 
time	R_ground_force_vx	R_ground_force_vy	R_ground_force_vz	R_ground_force_px	R_ground_force_py	R_ground_force_pz	R_ground_torque_x	R_ground_torque_y	R_ground_torque_z	L_ground_force_vx	L_ground_force_vy	L_ground_force_vz	L_ground_force_px	L_ground_force_py	L_ground_force_pz	L_ground_torque_x	L_ground_torque_y	L_ground_torque_z	3_ground_force_vx	3_ground_force_vy	3_ground_force_vz	3_ground_force_px	3_ground_force_py	3_ground_force_pz	3_ground_torque_x	3_ground_torque_y	3_ground_torque_z	
          1.39950000	        -42.84922000	         56.22354200	        -14.95253500	         -0.03455500	          0.00600000	         -0.37102500	          0.00000000	          0.37795600	          0.00000000	          0.00000000	          0.00000000	          0.00000000	          0.00000000	          0.00000000	          0.00000000	          0.00000000	          0.00000000	          0.00000000	          0.00000000	          0.00000000	          0.00000000	          0.00000000	          0.00000000	          0.00000000	          0.00000000	          0.00000000	          0.00000000	
          1.40000000	        -51.20866000	         68.36832700	        -17.47508200	         -0.03751600	          0.00600000	         -0.37105600	          0.00000000	          0.40093400	          0.00000000	          0.00000000	          0.00000000	          0.00000000	          0.00000000	          0.00000000	          0.00000000	          0.00000000	          0.00000000	          0.00000000	          0.00000000	          0.00000000	          0.00000000	          0.00000000	          0.00000000	          0.00000000	          0.00000000	          0.00000000	          0.00000000	
          1.40050000	        -60.26728000	         81.59907900	        -20.18229800	         -0.03982900	          0.00600000	         -0.37114900	          0.00000000	          0.43018300	          0.00000000	          0.00000000	          0.00000000	          0.00000000	          0.00000000	          0.00000000	          0.00000000	          0.00000000	          0.00000000	          0.00000000	          0.00000000	          0.00000000	          0.00000000	          0.00000000	          0.00000000	          0.00000000	          0.00000000	          0.00000000	          0.00000000	
          1.40100000	        -70.03865500	         95.94473800	        -23.07474000	         -0.04169500	          0.00600000	         -0.37128400	          0.00000000	          0.46540400	          0.00000000	          0.00000000	          0.00000000	          0.00000000	          0.00000000	          0.00000000	          0.00000000	          0.00000000	          0.00000000	          0.00000000	          0.00000000	          0.00000000	          0.00000000	          0.00000000	          0.00000000	          0.00000000	          0.00000000	          0.00000000	          0.00000000	
          1.40150000	        -80.53152100	        111.42776300	        -26.15130000	         -0.04324100	          0.00600000	         -0.37144900	          0.00000000	          0.50652300	          0.00000000	          0.00000000	          0.00000000	          0.00000000	          0.00000000	          0.00000000	          0.00000000	          0.00000000	          0.00000000	          0.00000000	          0.00000000	          0.00000000	          0.00000000	          0.00000000	          0.00000000	          0.00000000	          0.00000000	          0.00000000	          0.00000000	
          1.40200000	        -91.74900500	        128.06303400	        -29.40897300	         -0.04455300	          0.00600000	         -0.37163500	          0.00000000	          0.55359200	          0.00000000	          0.00000000	          0.00000000	          0.00000000	          0.00000000	          0.00000000	          0.00000000	          0.00000000	          0.00000000	          0.00000000	          0.00000000	          0.00000000	          0.00000000	          0.00000000	          0.00000000	          0.00000000	          0.00000000	          0.00000000	          0.00000000	
          1.40250000	       -103.68779800	        145.85684300	        -32.84264500	         -0.04568700	          0.00600000	         -0.37183700	          0.00000000	          0.60673000	          0.00000000	          0.00000000	          0.00000000	          0.00000000	          0.00000000	          0.00000000	          0.00000000	          0.00000000	          0.00000000	          0.00000000	          0.00000000	          0.00000000	          0.00000000	          0.00000000	          0.00000000	          0.00000000	          0.00000000	          0.00000000	          0.00000000	
          1.40300000	       -116.33727900	        164.80617100	        -36.44492100	         -0.04668300	          0.00600000	         -0.37205300	          0.00000000	          0.66607400	          0.00000000	          0.00000000	          0.00000000	          0.00000000	          0.00000000	          0.00000000	          0.00000000	          0.00000000	          0.00000000	          0.00000000	          0.00000000	          0.00000000	          0.00000000	          0.00000000	          0.00000000	          0.00000000	          0.00000000	          0.00000000	          0.00000000	
          1.40350000	       -129.67875400	        184.89844200	        -40.20618000	         -0.04757200	          0.00600000	         -0.37227800	          0.00000000	          0.73172200	          0.00000000	          0.00000000	          0.00000000	          0.00000000	          0.00000000	          0.00000000	          0.00000000	          0.00000000	          0.00000000	          0.00000000	          0.00000000	          0.00000000	          0.00000000	          0.00000000	          0.00000000	          0.00000000	          0.00000000	          0.00000000	          0.00000000	
          1.40400000	       -143.68508900	        206.11185400	        -44.11507000	         -0.04837400	          0.00600000	         -0.37251200	          0.00000000	          0.80368000	          0.00000000	          0.00000000	          0.00000000	          0.00000000	          0.00000000	          0.00000000	          0.00000000	          0.00000000	          0.00000000	          0.00000000	          0.00000000	          0.00000000	          0.00000000	          0.00000000	          0.00000000	          0.00000000	          0.00000000	          0.00000000	          0.00000000	
          1.40450000	       -158.32103000	        228.41615700	        -48.15944600	         -0.04910700	          0.00600000	         -0.37275200	          0.00000000	          0.88182000	          0.00000000	          0.00000000	          0.00000000	          0.00000000	          0.00000000	          0.00000000	          0.00000000	          0.00000000	          0.00000000	          0.00000000	          0.00000000	          0.00000000	          0.00000000	          0.00000000	          0.00000000	          0.00000000	          0.00000000	          0.00000000	          0.00000000	
          1.40500000	       -173.54432100	        251.77355400	        -52.32744900	         -0.04978300	          0.00600000	         -0.37299600	          0.00000000	          0.96590100	          0.00000000	          0.00000000	          0.00000000	          0.00000000	          0.00000000	          0.00000000	          0.00000000	          0.00000000	          0.00000000	          0.00000000	          0.00000000	          0.00000000	          0.00000000	          0.00000000	          0.00000000	          0.00000000	          0.00000000	          0.00000000	          0.00000000	
          1.40550000	       -189.30740400	        276.13936100	        -56.60824200	         -0.05041200	          0.00600000	         -0.37324300	          0.00000000	          1.05566900	          0.00000000	          0.00000000	          0.00000000	          0.00000000	          0.00000000	          0.00000000	          0.00000000	          0.00000000	          0.00000000	          0.00000000	          0.00000000	          0.00000000	          0.00000000	          0.00000000	          0.00000000	          0.00000000	          0.00000000	          0.00000000	          0.00000000	
